<svg width="100" height="139" viewBox="0 0 100 139" fill="none" xmlns="http://www.w3.org/2000/svg">
<path d="M70.4485 62.0684H59.0986V50.633H70.4485V62.0684Z" fill="#003A00"/>
<path d="M85.2239 62.0684H73.874V50.633H85.2239V62.0684Z" fill="#003A00"/>
<path d="M70.4485 36.752H59.0986V25.3166H70.4485V36.752Z" fill="#003A00"/>
<path d="M85.2239 36.752H73.874V25.3166H85.2239V36.752Z" fill="#003A00"/>
<path d="M100 62.0684H88.6504V50.633H100V62.0684Z" fill="#003A00"/>
<path d="M70.4485 11.4355L59.0986 11.4355V0.000191689L70.4485 0.000191689V11.4355Z" fill="#003A00"/>
<path d="M85.2239 11.4355L73.874 11.4355V0.000191689L85.2239 0.000191689V11.4355Z" fill="#003A00"/>
<path d="M100 11.4355L88.6504 11.4355V0.000191689L100 0.000191689V11.4355Z" fill="#003A00"/>
<path d="M70.4485 87.3828H59.0986V75.9475H70.4485V87.3828Z" fill="#00C45B"/>
<path d="M85.2239 87.3828H73.874V75.9475H85.2239V87.3828Z" fill="#00C45B"/>
<path d="M100 87.3828H88.6504V75.9475H100V87.3828Z" fill="#00C45B"/>
<path d="M70.4485 112.699H59.0986V101.264H70.4485V112.699Z" fill="#00C45B"/>
<path d="M85.2239 112.699H73.874V101.264H85.2239V112.699Z" fill="#00C45B"/>
<path d="M100 112.699H88.6504V101.264H100V112.699Z" fill="#00C45B"/>
<path d="M70.4485 138.016H59.0986V126.58H70.4485V138.016Z" fill="#00C45B"/>
<path d="M85.2239 138.016H73.874V126.58H85.2239V138.016Z" fill="#00C45B"/>
<path d="M100 138.016H88.6504V126.58H100V138.016Z" fill="#00C45B"/>
<path d="M55.6741 62.0684H44.3242V50.633H55.6741V62.0684Z" fill="#00C45B"/>
<path d="M55.6741 36.752H44.3242V25.3166H55.6741V36.752Z" fill="#00C45B"/>
<path d="M55.6741 11.4355L44.3242 11.4355V0.000191689L55.6741 0.000191689V11.4355Z" fill="#00C45B"/>
<path d="M55.6741 87.3828H44.3242V75.9475H55.6741V87.3828Z" fill="#00C45B"/>
<path d="M55.6741 112.699H44.3242V101.264H55.6741V112.699Z" fill="#00C45B"/>
<path d="M40.8997 62.0684H29.5498L29.5498 50.633H40.8997V62.0684Z" fill="#00C45B"/>
<path d="M40.8997 36.752H29.5498L29.5498 25.3166H40.8997V36.752Z" fill="#00C45B"/>
<path d="M40.8997 87.3828H29.5498L29.5498 75.9475H40.8997V87.3828Z" fill="#00C45B"/>
<path d="M40.8997 112.699H29.5498L29.5498 101.264H40.8997V112.699Z" fill="#00C45B"/>
<path d="M26.1242 62.0684H14.7744L14.7744 50.633H26.1242V62.0684Z" fill="#00C45B"/>
<path d="M26.1242 36.752H14.7744L14.7744 25.3166H26.1242V36.752Z" fill="#00C45B"/>
<path d="M26.1242 87.3828H14.7744L14.7744 75.9475H26.1242V87.3828Z" fill="#00C45B"/>
<path d="M26.1242 112.699H14.7744L14.7744 101.264H26.1242V112.699Z" fill="#00C45B"/>
<path d="M11.3498 62.0684H0L0 50.633H11.3498L11.3498 62.0684Z" fill="#00C45B"/>
<path d="M11.3498 36.752H0L0 25.3166H11.3498L11.3498 36.752Z" fill="#00C45B"/>
<path d="M11.3498 87.3828H0L0 75.9475H11.3498L11.3498 87.3828Z" fill="#00C45B"/>
</svg>
