<svg width="100" height="139" viewBox="0 0 100 139" fill="none" xmlns="http://www.w3.org/2000/svg">
<path d="M70.4485 62.0679H59.0986V50.6325H70.4485V62.0679Z" fill="#F8F8F8"/>
<path d="M85.2239 62.0679H73.874V50.6325H85.2239V62.0679Z" fill="#F8F8F8"/>
<path d="M70.4485 36.7515H59.0986V25.3161H70.4485V36.7515Z" fill="#F8F8F8"/>
<path d="M85.2239 36.7515H73.874V25.3161H85.2239V36.7515Z" fill="#F8F8F8"/>
<path d="M100 62.0679H88.6504V50.6325H100V62.0679Z" fill="#F8F8F8"/>
<path d="M70.4485 11.4355L59.0986 11.4355V0.000191689L70.4485 0.000191689V11.4355Z" fill="#F8F8F8"/>
<path d="M85.2239 11.4355L73.874 11.4355V0.000191689L85.2239 0.000191689V11.4355Z" fill="#F8F8F8"/>
<path d="M100 11.4355L88.6504 11.4355V0.000191689L100 0.000191689V11.4355Z" fill="#F8F8F8"/>
<path d="M70.4485 87.3828H59.0986V75.9475H70.4485V87.3828Z" fill="#00C45B"/>
<path d="M85.2239 87.3828H73.874V75.9475H85.2239V87.3828Z" fill="#00C45B"/>
<path d="M100 87.3828H88.6504V75.9475H100V87.3828Z" fill="#00C45B"/>
<path d="M70.4485 112.699H59.0986V101.263H70.4485V112.699Z" fill="#00C45B"/>
<path d="M85.2239 112.699H73.874V101.263H85.2239V112.699Z" fill="#00C45B"/>
<path d="M100 112.699H88.6504V101.263H100V112.699Z" fill="#00C45B"/>
<path d="M70.4485 138.015H59.0986V126.58H70.4485V138.015Z" fill="#00C45B"/>
<path d="M85.2239 138.015H73.874V126.58H85.2239V138.015Z" fill="#00C45B"/>
<path d="M100 138.015H88.6504V126.58H100V138.015Z" fill="#00C45B"/>
<path d="M55.6741 62.0679H44.3242V50.6325H55.6741V62.0679Z" fill="#00C45B"/>
<path d="M55.6741 36.7515H44.3242V25.3161H55.6741V36.7515Z" fill="#00C45B"/>
<path d="M55.6741 11.4355L44.3242 11.4355V0.000191689L55.6741 0.000191689V11.4355Z" fill="#00C45B"/>
<path d="M55.6741 87.3828H44.3242V75.9475H55.6741V87.3828Z" fill="#00C45B"/>
<path d="M55.6741 112.699H44.3242V101.263H55.6741V112.699Z" fill="#00C45B"/>
<path d="M40.8987 62.0679H29.5488L29.5488 50.6325H40.8987V62.0679Z" fill="#00C45B"/>
<path d="M40.8987 36.7515H29.5488L29.5488 25.3161H40.8987V36.7515Z" fill="#00C45B"/>
<path d="M40.8987 87.3828H29.5488L29.5488 75.9475H40.8987V87.3828Z" fill="#00C45B"/>
<path d="M40.8987 112.699H29.5488L29.5488 101.263H40.8987V112.699Z" fill="#00C45B"/>
<path d="M26.1242 62.0679H14.7744L14.7744 50.6325H26.1242V62.0679Z" fill="#00C45B"/>
<path d="M26.1242 36.7515H14.7744L14.7744 25.3161H26.1242V36.7515Z" fill="#00C45B"/>
<path d="M26.1242 87.3828H14.7744L14.7744 75.9475H26.1242V87.3828Z" fill="#00C45B"/>
<path d="M26.1242 112.699H14.7744L14.7744 101.263H26.1242V112.699Z" fill="#00C45B"/>
<path d="M11.3498 62.0679H0L0 50.6325H11.3498L11.3498 62.0679Z" fill="#00C45B"/>
<path d="M11.3498 36.7515H0L0 25.3161H11.3498L11.3498 36.7515Z" fill="#00C45B"/>
<path d="M11.3498 87.3828H0L0 75.9475H11.3498L11.3498 87.3828Z" fill="#00C45B"/>
</svg>
