<svg width="80" height="57" viewBox="0 0 80 57" fill="none" xmlns="http://www.w3.org/2000/svg">
<path d="M66.3923 30.2518V33.7602L34.4661 14.7634C34.2061 14.6112 33.8773 14.6112 33.6086 14.7634L5.06984 31.7482H5.01109V31.7822L1.68359 33.7602V30.2518L34.0386 11.001L66.3923 30.2518ZM34.0386 16.4798L6.69234 32.7454V55.0054H60.4761V32.2047L34.0386 16.4798Z" fill="#00C45B"/>
<path d="M67.6637 29.0404L34.4663 9.28904C34.2038 9.13186 33.8737 9.13186 33.6113 9.28904L0.4125 29.0404C0.15625 29.1925 0 29.4692 0 29.7672V35.2448C0 35.5491 0.16125 35.8283 0.42375 35.9792C0.5525 36.0534 0.69625 36.0911 0.84 36.0911C0.98875 36.0911 1.13625 36.0508 1.2675 35.9729L5.0125 33.7446V55.8474C5.0125 56.3152 5.38875 56.6925 5.8525 56.6925H61.3175C61.7825 56.6925 62.1575 56.3139 62.1575 55.8474V33.2077L66.8063 35.9729C67.065 36.1275 67.3887 36.1313 67.65 35.9792C67.9125 35.8295 68.0737 35.5491 68.0737 35.2448V29.7672C68.0762 29.4692 67.92 29.1925 67.6637 29.0404ZM60.4787 55.0011H6.695V32.7437L34.0387 16.4756L60.48 32.2067L60.4787 55.0011ZM66.395 33.7635L34.4663 14.7654C34.2038 14.6082 33.8737 14.6082 33.6113 14.7654L5.06875 31.7477H5.01375V31.7804L1.68 33.7635V30.2501L34.0375 10.9992L66.395 30.2501V33.7635ZM12.8225 20.8604L11.94 19.4219L19.2262 14.8999L20.1087 16.3385L12.8225 20.8604ZM3.20875 26.6386L2.32625 25.1987L9.6125 20.6781L10.495 22.1179L3.20875 26.6386ZM22.445 15.0269L21.5625 13.5871L28.8475 9.06647L29.73 10.5063L22.445 15.0269ZM55.2525 20.8604L47.9675 16.3385L48.85 14.8999L56.135 19.4219L55.2525 20.8604ZM65.75 25.1987L64.8675 26.6386L57.5825 22.1179L58.465 20.6781L65.75 25.1987ZM45.63 15.0269L38.345 10.5063L39.2275 9.06647L46.5125 13.5871L45.63 15.0269ZM74.4863 17.5469C74.4863 21.4728 72.5713 25.1572 69.3638 27.4031L68.4037 26.0161C71.16 24.0859 72.805 20.9208 72.805 17.5469C72.805 11.8631 68.2075 7.23808 62.5562 7.23808C58.315 7.23808 54.57 9.80335 53.0162 13.772L51.4525 13.1533C53.2612 8.53329 57.62 5.54802 62.5562 5.54802C69.135 5.54677 74.4863 10.9301 74.4863 17.5469ZM63.3975 4.59233H61.7163V0H63.3975V4.59233ZM80 16.7019V18.3932H75.435V16.7019H80ZM52.8575 8.98473L49.63 5.7379L50.8187 4.54204L54.0462 7.78886L52.8575 8.98473ZM72.2562 8.98473L71.0675 7.78886L74.2962 4.54204L75.485 5.7379L72.2562 8.98473ZM72.2562 26.1092L75.485 29.3572L74.2962 30.5531L71.0675 27.305L72.2562 26.1092Z" fill="#003A00"/>
</svg>
